<svg id="visual" viewBox="0 0 900 675" width="900" height="675" xmlns="http://www.w3.org/2000/svg" xmlns:xlink="http://www.w3.org/1999/xlink" version="1.1"><rect x="0" y="0" width="900" height="675" fill="#ffffff"></rect><g transform="translate(-70.03947887835324 666.6697767110242)"><path d="M330.9 -459.8C500.7 -332.2 759.6 -331.6 859.6 -230.5C959.6 -129.5 900.7 72 825.1 256.9C749.6 441.7 657.5 610 517.2 727.8C377 845.5 188.5 912.8 16 890.8C-156.5 868.8 -313.1 757.6 -415.5 627.5C-517.9 497.5 -566.1 348.6 -637.2 192.3C-708.2 36.1 -802.1 -127.5 -763.5 -248.7C-725 -369.9 -554.1 -448.7 -404.8 -583C-255.5 -717.3 -127.7 -907.1 -23.6 -874.6C80.6 -842.2 161.2 -587.5 330.9 -459.8" fill="#7ac5e2"></path></g></svg>